<?xml version="1.0" standalone="no"?>
<!DOCTYPE svg PUBLIC "-//W3C//DTD SVG 20010904//EN"
 "http://www.w3.org/TR/2001/REC-SVG-20010904/DTD/svg10.dtd">
<svg version="1.0" xmlns="http://www.w3.org/2000/svg"
 width="1838.000000pt" height="1920.000000pt" viewBox="0 0 1838.000000 1920.000000"
 preserveAspectRatio="xMidYMid meet">

<g transform="translate(0.000000,1920.000000) scale(0.100000,-0.100000)"
fill="#000000" stroke="none">
<path d="M10960 19175 c-69 -13 -372 -67 -675 -120 -3352 -587 -4709 -907
-6975 -1645 -201 -65 -432 -140 -514 -167 l-149 -48 -17 -40 c-9 -22 -60 -168
-113 -325 -261 -772 -336 -1177 -324 -1753 9 -455 70 -866 239 -1606 56 -247
57 -235 -21 -246 -122 -17 -1739 -348 -1746 -357 -9 -12 -98 -172 -174 -314
-273 -513 -400 -874 -468 -1329 -25 -169 -25 -687 1 -935 24 -244 69 -569 121
-875 94 -558 89 -538 133 -570 15 -11 158 -125 317 -255 160 -129 355 -288
435 -352 80 -64 244 -197 365 -295 122 -98 334 -269 473 -381 138 -112 254
-208 258 -213 3 -5 -31 -65 -75 -134 -281 -431 -425 -773 -499 -1175 -24 -136
-26 -164 -26 -455 0 -237 4 -344 17 -455 36 -290 101 -640 192 -1025 48 -206
225 -876 236 -897 14 -26 31 -33 288 -120 486 -164 800 -271 1291 -438 278
-95 656 -223 840 -285 184 -63 436 -148 560 -190 260 -89 614 -209 1055 -358
171 -58 418 -142 550 -187 132 -45 490 -166 795 -270 305 -104 782 -266 1060
-360 767 -261 994 -338 1120 -380 63 -21 201 -68 305 -104 169 -57 1094 -371
1409 -478 90 -31 125 -39 142 -32 20 8 212 191 859 823 94 92 253 247 355 346
102 99 273 265 380 370 107 105 350 341 540 525 190 184 431 418 535 520 105
101 264 257 355 345 91 89 253 247 360 352 107 105 209 204 225 218 17 15 109
104 205 198 96 94 252 245 345 336 94 91 253 247 355 346 102 100 356 347 565
550 209 203 454 441 545 530 91 89 336 327 545 530 737 717 805 784 813 807 5
13 4 177 -2 365 -10 322 -12 344 -31 362 -19 18 -51 20 -595 36 -316 9 -581
18 -587 21 -10 3 -13 120 -13 541 l0 538 413 382 c226 210 427 398 446 417
l34 35 -12 283 c-13 314 -16 341 -34 357 -7 5 -69 19 -137 30 -104 16 -837
139 -1335 225 l-130 22 -3 70 c-2 38 -6 163 -10 278 l-7 209 -340 159 c-374
175 -465 218 -915 428 -168 78 -309 145 -313 150 -4 4 14 15 40 25 316 119
1328 516 2123 834 190 76 216 89 224 113 13 37 -12 627 -28 651 -6 9 -132 76
-281 148 -148 72 -356 173 -461 224 l-192 93 -6 284 c-11 482 -27 1570 -24
1572 2 1 172 46 378 100 501 131 515 135 530 160 7 12 23 122 37 255 27 270
29 257 -64 313 -32 19 -132 82 -223 140 -1889 1197 -2863 1687 -4265 2148
-469 154 -1417 431 -1471 429 -16 0 -85 -11 -154 -24z m-5150 -4215 l2540
-1270 0 -455 c0 -250 -3 -455 -6 -455 -3 0 -105 51 -227 114 -122 62 -393 200
-602 306 -209 106 -497 252 -640 325 -143 73 -559 284 -925 470 -366 186 -786
399 -935 475 -1287 655 -1251 639 -1243 574 3 -27 -25 -13 913 -488 689 -350
1024 -520 1270 -646 127 -65 419 -213 650 -330 231 -117 488 -247 570 -290 83
-43 375 -191 650 -330 275 -139 506 -258 514 -264 11 -9 13 -48 9 -214 -3
-111 -8 -205 -10 -207 -5 -5 -246 108 -1293 605 -269 128 -530 252 -580 275
-49 23 -223 105 -385 182 -752 357 -853 404 -867 401 -27 -5 -40 -35 -23 -52
13 -13 223 -115 755 -366 44 -21 172 -81 285 -135 113 -54 288 -137 390 -185
102 -48 316 -149 475 -225 160 -75 326 -154 370 -175 44 -21 229 -108 410
-195 182 -86 360 -171 398 -187 l67 -31 0 -289 0 -289 -27 15 c-16 7 -224 107
-463 221 -239 114 -489 233 -555 265 -66 31 -266 127 -445 213 -179 85 -440
210 -580 277 -407 195 -918 439 -1007 481 -87 41 -304 145 -545 261 -123 59
-150 69 -163 58 -18 -15 -20 -44 -2 -57 6 -6 154 -78 327 -161 173 -82 477
-227 675 -322 198 -95 405 -194 460 -220 55 -26 561 -268 1125 -537 564 -270
1064 -509 1113 -532 l87 -42 0 -219 c0 -121 -3 -220 -6 -220 -5 0 -115 51
-456 211 -93 44 -243 114 -335 158 -93 43 -402 189 -688 323 -286 135 -866
409 -1290 608 -423 199 -889 419 -1035 487 -291 138 -715 337 -825 388 -38 18
-132 63 -209 99 -76 37 -161 76 -187 88 l-49 20 0 1379 c0 759 2 1379 5 1379
3 0 1148 -572 2545 -1270z m10313 168 c4 -277 12 -768 17 -1092 6 -324 7 -593
3 -597 -4 -4 -75 -27 -158 -52 -82 -25 -346 -104 -585 -177 -239 -73 -581
-176 -760 -230 -179 -54 -453 -137 -610 -185 -157 -48 -501 -152 -765 -232
-264 -79 -588 -177 -720 -218 -215 -65 -425 -129 -1205 -365 -124 -37 -517
-157 -875 -265 -357 -108 -677 -205 -710 -215 -33 -10 -224 -68 -425 -129
-201 -60 -490 -148 -642 -194 l-278 -84 0 217 0 217 638 191 c350 105 858 257
1127 337 270 80 594 177 720 215 1131 338 1945 582 2175 650 898 268 1278 382
1298 390 25 11 29 42 8 59 -15 13 58 34 -2226 -649 -646 -193 -1233 -369
-1305 -390 -71 -21 -440 -132 -820 -245 -379 -113 -811 -242 -960 -287 -148
-44 -351 -104 -450 -134 -99 -30 -184 -54 -190 -54 -11 0 -8 561 3 571 6 5 75
25 482 139 114 32 1021 288 1775 501 116 33 289 82 385 109 243 68 529 149
990 280 217 62 456 129 530 150 325 91 487 137 1010 285 305 86 616 174 690
195 74 21 250 70 390 110 140 40 287 81 325 91 39 11 248 70 465 132 348 99
395 115 398 133 2 11 -4 27 -13 34 -13 11 -59 0 -283 -63 -147 -42 -357 -101
-467 -132 -110 -31 -366 -104 -570 -161 -203 -58 -530 -150 -725 -205 -195
-55 -458 -130 -585 -165 -126 -36 -349 -99 -495 -140 -146 -41 -407 -115 -580
-164 -297 -84 -1271 -359 -1610 -455 -177 -50 -759 -214 -1345 -380 -605 -171
-761 -215 -768 -215 -4 0 -7 99 -7 220 l0 219 68 20 c37 10 285 81 552 156
692 195 1176 332 1555 440 182 51 402 114 490 139 205 57 668 188 1095 310
184 52 457 129 605 171 149 42 428 121 620 175 488 138 1209 342 1400 396 229
65 253 73 259 91 4 9 0 24 -9 32 -18 19 -2 23 -595 -145 -223 -64 -578 -164
-790 -224 -212 -60 -646 -183 -965 -274 -319 -90 -663 -187 -765 -216 -102
-29 -444 -125 -760 -215 -316 -90 -690 -195 -830 -235 -140 -39 -394 -111
-565 -160 -170 -48 -512 -145 -760 -215 -247 -70 -479 -135 -514 -146 -35 -10
-70 -19 -79 -19 -13 0 -14 47 -10 431 3 236 7 432 9 434 2 2 126 -58 275 -132
l271 -136 174 61 c96 33 323 113 504 177 2082 735 3585 1224 4920 1600 110 31
254 72 320 90 126 36 393 109 735 202 113 30 259 70 325 88 66 18 129 33 141
34 21 1 21 0 27 -501z m-13588 -2110 c10 -40 22 -79 28 -85 12 -17 146 -90
462 -253 88 -45 174 -90 190 -100 17 -9 89 -48 160 -85 122 -64 212 -111 415
-217 47 -25 153 -80 235 -123 83 -43 177 -92 210 -110 78 -42 199 -106 360
-190 72 -37 171 -89 220 -115 140 -74 247 -130 410 -215 83 -43 206 -108 275
-145 69 -37 184 -98 255 -135 72 -37 171 -89 220 -115 116 -61 798 -420 1205
-632 173 -91 349 -183 390 -205 41 -22 147 -77 235 -123 88 -45 165 -86 170
-90 6 -4 80 -43 165 -88 130 -67 351 -182 526 -274 l42 -22 358 109 c537 162
526 159 549 144 11 -6 54 -37 95 -67 41 -31 95 -70 120 -88 156 -113 382 -284
376 -284 -3 0 -48 -10 -99 -21 -50 -12 -108 -25 -127 -29 -19 -4 -190 -42
-380 -84 -496 -111 -529 -118 -973 -210 -590 -124 -1168 -237 -1188 -234 -10
2 -157 113 -326 248 -169 134 -416 330 -548 435 -241 191 -432 343 -995 790
-166 132 -359 285 -429 341 -69 55 -214 170 -321 255 -107 85 -303 241 -435
346 -395 314 -686 545 -980 778 -153 121 -414 328 -579 460 -166 132 -361 287
-434 345 -73 57 -132 107 -132 111 0 7 189 46 231 48 25 1 28 -4 44 -71z
m-1124 -1259 c129 -101 490 -383 804 -627 314 -245 590 -461 615 -481 25 -20
146 -115 269 -211 123 -96 288 -225 365 -285 78 -61 265 -207 416 -325 151
-118 359 -280 461 -360 800 -625 1034 -807 1241 -969 l238 -186 0 -70 c0 -38
-9 -223 -20 -410 -11 -187 -20 -350 -20 -362 0 -13 -4 -23 -9 -23 -4 0 -147
110 -317 245 -616 490 -724 576 -1039 827 -853 678 -1209 960 -1220 964 -6 3
-18 -3 -26 -12 -16 -20 -15 -22 241 -224 96 -77 272 -216 390 -310 118 -94
339 -270 490 -390 151 -120 448 -356 660 -525 212 -168 492 -390 622 -493 130
-103 237 -191 237 -195 1 -5 -7 -6 -18 -2 -17 5 -19 -4 -25 -112 -15 -275 -19
-323 -27 -323 -4 0 -63 44 -131 98 -191 153 -533 424 -883 702 -176 140 -462
367 -635 505 -173 138 -569 453 -880 700 -311 247 -657 522 -770 612 -112 90
-212 163 -222 163 -31 0 -22 -43 15 -70 17 -13 154 -121 302 -239 149 -118
322 -256 385 -306 136 -108 588 -467 855 -680 279 -222 979 -779 1296 -1031
152 -120 365 -289 473 -374 l197 -155 -6 -140 c-8 -193 -17 -305 -24 -305 -3
0 -63 44 -133 98 -127 98 -568 436 -1523 1167 -565 433 -1286 986 -1650 1265
-126 97 -396 303 -598 459 -203 155 -374 284 -381 287 -20 8 -41 -23 -27 -40
7 -8 112 -91 234 -184 122 -93 384 -294 582 -446 325 -249 442 -339 836 -641
65 -49 216 -165 336 -257 120 -92 360 -276 533 -409 173 -132 345 -264 382
-292 36 -29 173 -134 305 -234 131 -101 342 -262 468 -359 127 -97 322 -247
434 -332 l204 -156 -7 -166 c-8 -195 -16 -280 -26 -280 -7 0 -182 130 -400
299 -105 81 -971 743 -1655 1266 -180 138 -354 270 -385 295 -32 25 -98 75
-146 112 -49 38 -217 166 -374 286 -157 120 -346 265 -422 322 -75 58 -392
300 -704 539 l-567 434 7 126 c7 142 68 1405 91 1876 24 504 26 537 40 531 7
-2 118 -87 246 -187z m15680 -1607 c16 -7 -8 -29 -680 -638 -31 -28 -166 -151
-301 -274 l-245 -222 -6 88 c-4 49 -9 287 -13 529 l-7 440 136 115 c75 63 144
118 153 121 16 6 933 -145 963 -159z m-1166 83 c-16 -14 -42 -34 -57 -46 l-28
-20 0 35 c0 31 4 36 28 42 15 3 32 7 37 9 6 2 19 4 30 4 17 1 16 -3 -10 -24z
m-161 -257 c19 -779 31 -1556 24 -1563 -14 -15 -2265 -656 -3383 -963 -1120
-309 -2539 -674 -3560 -917 -154 -37 -363 -87 -465 -112 -102 -24 -232 -55
-290 -69 -58 -13 -211 -49 -340 -79 -1156 -272 -1985 -462 -1992 -456 -6 6 16
449 23 455 2 2 69 20 149 40 80 19 393 96 695 171 303 75 667 165 810 200 143
35 452 111 687 169 234 58 545 135 690 170 145 36 493 122 773 191 281 69 636
157 790 195 432 106 1166 287 1745 430 1227 304 2140 528 2600 641 179 43 335
83 348 89 24 11 29 41 9 58 -9 8 -78 -5 -247 -47 -293 -72 -882 -218 -1445
-356 -236 -59 -621 -153 -855 -211 -234 -58 -551 -136 -705 -174 -341 -84
-1222 -301 -1985 -490 -311 -77 -740 -182 -955 -235 -940 -232 -2238 -552
-2834 -699 -146 -36 -266 -65 -267 -63 -1 1 3 100 9 220 l11 217 35 9 c20 5
142 34 271 65 129 31 451 107 715 170 264 63 860 205 1325 316 465 110 919
219 1010 241 91 21 449 107 795 189 347 82 648 154 670 160 22 5 173 42 335
80 162 39 369 88 460 110 91 21 356 85 590 140 234 56 481 115 550 131 69 17
361 86 650 155 289 68 535 128 548 134 41 18 22 68 -23 61 -20 -3 -431 -100
-1510 -358 -313 -74 -660 -157 -770 -183 -110 -26 -326 -78 -480 -114 -154
-37 -714 -171 -1245 -297 -531 -126 -1048 -250 -1150 -274 -102 -25 -552 -132
-1000 -239 -448 -107 -1028 -245 -1287 -307 -260 -62 -475 -110 -478 -107 -10
9 18 443 29 454 6 6 36 16 66 23 81 18 244 56 1340 311 547 127 1119 260 1270
295 151 35 442 103 645 150 204 47 417 97 475 111 58 13 200 46 315 73 116 27
631 147 1145 266 514 119 941 222 948 228 19 15 10 52 -14 55 -11 2 -164 -31
-340 -72 -175 -41 -483 -113 -684 -160 -1263 -293 -2670 -620 -3060 -711 -250
-59 -511 -119 -580 -135 -69 -16 -269 -62 -445 -103 -176 -41 -490 -114 -697
-163 -208 -48 -380 -85 -383 -82 -5 5 33 777 41 816 4 20 14 14 119 -68 64
-50 126 -95 139 -101 24 -11 56 -5 1201 247 1107 244 1818 403 2615 584 245
56 513 116 595 135 236 53 1024 234 1090 250 33 8 245 57 470 109 482 111 960
222 1350 312 154 36 345 81 425 99 362 84 1789 416 1820 424 19 5 38 9 41 10
4 1 10 -113 13 -251z m1736 102 c124 -22 235 -40 247 -42 19 -3 4 -22 -100
-133 -177 -188 -1329 -1345 -1351 -1357 -13 -7 -37 -4 -90 13 -162 51 -214 67
-273 85 l-63 19 0 96 c0 53 -3 110 -6 128 -7 34 -11 30 151 174 50 44 133 119
185 167 52 48 115 104 140 126 24 21 54 48 65 59 25 24 111 103 229 210 49 44
94 85 100 90 6 6 56 50 111 99 55 49 107 96 116 105 15 15 141 129 204 185 35
30 7 32 335 -24z m-430 -2303 l0 -823 -212 -191 c-117 -106 -224 -202 -238
-215 -14 -13 -115 -104 -225 -203 -422 -381 -627 -566 -820 -741 -290 -263
-696 -630 -1044 -944 -306 -276 -418 -377 -896 -810 -143 -129 -327 -295 -410
-370 -82 -74 -267 -241 -409 -370 -143 -129 -429 -387 -635 -574 -207 -186
-396 -357 -421 -380 -42 -38 -359 -326 -679 -614 -74 -67 -136 -121 -136 -119
-1 1 -5 37 -8 79 l-7 77 202 183 c111 101 377 343 592 538 215 195 488 442
606 550 118 107 530 481 915 830 384 349 754 685 820 745 66 61 161 147 210
191 433 392 581 528 588 540 11 20 -11 46 -35 42 -10 -2 -294 -253 -631 -559
-337 -306 -1208 -1097 -1937 -1759 l-1325 -1203 -3 126 -3 126 43 39 c24 21
178 160 343 308 408 367 1236 1110 1595 1433 162 146 365 328 450 405 85 76
173 155 195 175 22 20 173 156 335 301 162 145 410 368 551 495 140 126 383
344 538 484 223 200 281 258 279 275 -8 58 -35 38 -495 -376 -246 -221 -603
-542 -793 -712 -494 -443 -483 -433 -830 -746 -174 -157 -532 -478 -795 -715
-264 -236 -689 -618 -944 -849 -425 -381 -466 -416 -472 -395 -4 13 -7 81 -8
151 l-1 126 1048 917 c900 788 1047 920 1047 943 0 46 -34 39 -100 -21 -201
-180 -1987 -1738 -1989 -1735 -2 1 -5 115 -7 253 l-4 249 326 266 c179 146
452 367 605 491 153 125 317 258 364 296 47 38 216 175 375 304 241 195 697
566 1092 887 45 37 84 74 86 83 5 20 -10 39 -31 39 -8 0 -71 -46 -141 -102
-70 -57 -470 -382 -890 -723 -420 -341 -937 -761 -1150 -934 -592 -481 -632
-513 -636 -509 -6 6 -22 1103 -16 1110 4 4 179 -53 390 -127 210 -74 390 -135
398 -135 28 0 -13 -33 793 650 1032 875 2091 1795 2670 2320 47 43 177 160
290 262 113 102 267 241 343 310 102 93 148 128 180 137 42 13 172 53 562 176
143 45 216 72 228 86 15 19 17 47 17 264 l0 242 96 89 c143 133 199 183 202
184 1 0 2 -370 2 -823z m685 -358 c193 -6 351 -11 352 -12 2 -2 -284 -297
-713 -734 -188 -192 -380 -388 -428 -438 -48 -49 -172 -175 -274 -280 -103
-104 -425 -433 -717 -730 -291 -297 -966 -977 -1499 -1510 -923 -923 -1219
-1213 -1800 -1766 -48 -46 -116 -111 -150 -144 -56 -54 -224 -210 -301 -281
-16 -15 -88 -82 -160 -149 -71 -66 -155 -143 -185 -171 -30 -27 -62 -56 -70
-64 -14 -15 -217 -201 -325 -300 -27 -25 -81 -75 -121 -112 l-71 -66 -124 43
c-68 23 -131 45 -139 48 -8 4 -49 18 -90 32 -252 89 -477 168 -555 195 -49 18
-166 59 -260 92 -152 53 -347 122 -635 223 -52 19 -167 59 -255 90 -88 31
-171 61 -185 65 -14 5 -81 29 -150 53 -346 123 -480 170 -530 187 -30 10 -120
42 -200 70 -80 28 -170 60 -200 70 -45 16 -157 56 -230 83 -8 3 -31 11 -50 17
-19 6 -111 39 -205 72 -93 33 -251 88 -350 123 -257 90 -559 197 -710 250 -71
26 -173 61 -225 80 -52 18 -174 61 -270 95 -96 34 -186 66 -200 70 -14 5 -97
34 -185 65 -88 31 -203 72 -255 90 -52 18 -160 57 -240 85 -80 28 -188 66
-240 84 -52 19 -212 75 -355 126 -143 51 -278 98 -300 105 -22 7 -105 36 -185
65 -80 28 -233 82 -340 120 -107 38 -267 94 -355 125 -88 32 -178 63 -200 70
-22 8 -130 46 -240 85 -110 39 -228 81 -263 92 -49 17 -60 24 -50 33 7 6 72
39 143 73 l130 63 105 -35 c140 -45 384 -124 730 -236 157 -51 337 -109 400
-130 63 -21 216 -70 340 -110 124 -40 277 -90 340 -110 63 -21 250 -82 415
-135 165 -53 318 -103 340 -110 104 -35 493 -161 695 -225 124 -39 234 -75
245 -80 11 -4 49 -17 85 -28 36 -11 169 -54 295 -95 127 -41 352 -114 500
-162 149 -47 385 -124 525 -169 140 -46 401 -131 580 -189 179 -58 413 -133
520 -167 107 -34 218 -70 245 -81 28 -10 82 -28 120 -39 64 -20 221 -71 755
-244 231 -75 745 -241 813 -263 54 -17 60 -14 127 49 20 18 123 112 230 208
107 96 226 204 265 240 39 36 108 99 155 140 46 41 114 102 150 135 36 33 103
94 149 135 46 41 96 86 111 100 15 14 60 54 100 90 40 36 81 72 89 81 9 9 41
38 71 64 30 26 100 89 154 139 162 148 223 204 381 346 83 74 152 137 155 140
3 3 48 43 100 90 52 46 122 109 155 140 33 30 81 73 105 95 25 22 72 65 105
95 89 81 227 206 252 227 12 11 48 43 81 73 86 80 130 120 192 175 58 50 145
129 365 330 180 164 282 256 405 365 58 51 135 121 171 154 36 34 86 79 111
101 83 73 332 299 388 351 30 28 152 138 270 244 118 106 240 216 270 244 31
28 95 87 144 131 49 44 114 103 145 131 31 28 74 66 96 85 22 19 71 64 110
101 38 36 82 76 97 88 15 11 45 38 65 58 21 20 56 52 78 71 22 19 85 75 140
126 55 50 147 134 205 185 58 51 108 100 111 109 3 8 4 123 2 254 -1 132 0
244 3 249 3 5 58 7 132 3 70 -3 285 -10 477 -16z m-2925 -223 c-43 -41 -463
-405 -535 -464 -5 -4 -75 -64 -155 -132 -80 -69 -183 -157 -230 -195 -47 -38
-87 -72 -90 -75 -14 -14 -157 -135 -360 -304 -124 -103 -234 -194 -245 -204
-11 -9 -93 -76 -182 -149 -90 -74 -218 -179 -286 -236 -68 -56 -193 -158 -277
-227 -83 -69 -193 -159 -244 -201 -50 -41 -192 -158 -316 -258 -124 -101 -233
-191 -243 -199 -15 -14 -23 -14 -70 0 -72 22 -386 134 -393 141 -3 3 11 21 33
40 21 19 52 48 68 63 17 16 68 63 115 104 46 41 88 80 94 85 6 6 78 71 161
145 82 74 157 142 166 150 17 16 21 20 274 249 94 85 213 193 265 240 100 91
169 153 235 212 22 20 69 62 105 95 36 33 83 75 104 94 22 19 53 49 71 65 35
34 195 179 270 246 27 24 64 58 81 74 17 17 64 59 104 95 40 36 78 70 84 75
123 114 124 114 476 215 80 23 179 52 220 65 41 13 192 58 335 100 143 42 287
85 320 95 33 11 62 19 65 19 2 1 -7 -10 -20 -23z m-11700 -656 c168 -136 400
-323 515 -416 116 -93 359 -289 540 -436 445 -360 1019 -824 1189 -961 77 -62
159 -129 183 -149 24 -21 54 -40 67 -44 13 -3 66 8 122 25 54 16 349 102 654
191 535 156 1040 303 1356 396 168 49 173 50 229 30 83 -30 863 -304 1140
-401 1003 -352 1687 -594 1693 -599 7 -8 26 -1175 19 -1183 -3 -3 -832 270
-1841 607 -1202 400 -1842 609 -1856 605 -22 -7 -27 -37 -7 -52 6 -6 838 -285
1847 -622 1009 -336 1841 -615 1847 -619 15 -10 32 -522 17 -522 -5 0 -575
189 -1266 419 -1318 439 -1297 433 -1287 375 3 -16 212 -89 1279 -445 l1275
-426 6 -74 c9 -110 10 -237 2 -242 -5 -2 -147 42 -318 99 -170 56 -593 195
-940 309 -346 114 -923 303 -1281 421 -358 118 -661 214 -672 214 -12 0 -26
-8 -31 -19 -15 -27 8 -42 109 -75 47 -14 200 -64 340 -111 222 -73 928 -304
1890 -620 157 -51 426 -140 598 -197 l312 -103 0 -137 c0 -80 -4 -138 -9 -138
-6 0 -54 16 -108 35 -54 19 -242 83 -418 144 -176 60 -571 196 -878 301 -307
105 -566 190 -575 188 -10 -2 -18 -14 -20 -29 -4 -31 -41 -16 438 -179 195
-67 470 -161 610 -210 140 -48 410 -141 600 -205 190 -65 348 -121 353 -125 4
-3 9 -48 12 -98 4 -75 3 -92 -9 -92 -8 0 -103 29 -213 64 -109 36 -450 146
-758 246 -308 100 -731 237 -940 305 -385 125 -1290 418 -1620 525 -99 32
-495 160 -880 285 -385 125 -1019 330 -1410 457 -1209 391 -1408 456 -1790
579 -203 66 -399 129 -435 141 -36 11 -68 23 -72 27 -4 3 6 535 22 1181 40
1612 40 1621 54 1613 6 -4 148 -118 316 -253z m10265 241 c-11 -10 -76 -69
-145 -132 -69 -62 -165 -149 -215 -194 -49 -45 -141 -128 -204 -186 -63 -57
-142 -129 -176 -159 -64 -57 -866 -783 -945 -855 -415 -380 -589 -535 -602
-535 -7 0 -218 72 -468 161 -250 88 -490 172 -532 187 -43 14 -78 29 -77 32 0
3 59 55 131 115 72 61 201 171 288 245 541 466 834 712 856 720 14 6 119 37
232 70 114 33 581 170 1037 304 457 135 832 245 835 245 2 1 -4 -7 -15 -18z
m-2336 -710 c-67 -58 -182 -157 -299 -255 -58 -49 -130 -110 -160 -137 -30
-26 -111 -96 -180 -154 -69 -59 -138 -119 -155 -134 -16 -14 -70 -60 -119
-101 -50 -41 -100 -84 -112 -95 -12 -11 -34 -30 -49 -43 l-28 -23 -86 30 c-47
16 -203 71 -346 121 -143 51 -329 116 -414 146 -85 30 -156 56 -158 58 -3 2 4
7 14 9 10 3 122 36 248 72 127 36 264 77 305 90 79 25 109 33 395 115 99 28
216 62 260 75 111 34 323 96 495 145 159 46 379 110 395 115 34 12 32 0 -6
-34z"/>
</g>
</svg>
